<svg version="1.1" id="Layer_1" xmlns="http://www.w3.org/2000/svg" xmlns:xlink="http://www.w3.org/1999/xlink" x="0px" y="0px"
	 width="100%" viewBox="0 0 558 558" enable-background="new 0 0 458 458" xml:space="preserve">
<path fill="#000000" opacity="1.000000" stroke="none" 
	d="
M100.194534,426.425842 
	C107.979271,407.023590 121.018852,392.300385 137.090622,379.956360 
	C136.506821,383.345398 134.071884,385.615662 132.252151,388.187836 
	C120.258423,405.140503 113.600571,423.750763 114.299675,444.712128 
	C115.023415,466.412323 123.432800,485.114227 137.095947,501.552948 
	C160.398666,529.589355 191.234207,545.719910 225.317673,556.525452 
	C258.790710,567.137390 293.244324,569.977234 327.988159,567.464661 
	C369.051483,564.495056 407.954254,553.683105 442.721161,530.675964 
	C465.600159,515.535706 484.029083,496.479492 493.496399,470.111176 
	C501.956573,446.547821 499.485474,423.640259 488.468628,401.433014 
	C488.101532,400.693054 487.629639,399.999176 487.149872,399.324158 
	C486.968658,399.069244 486.626373,398.928802 486.326477,398.713959 
	C484.656067,398.547089 483.570343,399.738800 482.444489,400.631348 
	C463.163818,415.916443 441.023376,424.462769 416.933136,428.273346 
	C412.701843,428.942657 409.641113,430.733337 406.881073,433.963043 
	C382.151489,462.900848 350.634857,477.718506 312.656281,479.468689 
	C277.730347,481.078186 245.932800,472.979889 218.690262,450.271271 
	C198.810745,433.700256 185.122437,412.576813 174.789612,389.112183 
	C162.340240,360.841095 155.628586,331.052795 151.943680,300.539337 
	C151.075912,293.353699 149.936325,286.070374 150.936432,277.474335 
	C152.584686,280.859619 153.570175,283.322144 154.914734,285.569855 
	C160.959106,295.674286 170.282272,302.103943 180.375763,307.437317 
	C201.087250,318.381195 223.529358,323.870087 246.451263,327.640594 
	C271.528503,331.765625 296.832214,332.765808 322.145477,331.569153 
	C358.768738,329.837830 394.705048,324.464325 428.044861,307.841248 
	C436.624725,303.563354 444.263336,298.017792 450.626801,290.767365 
	C453.908752,287.027954 456.123016,282.685577 458.153320,278.051605 
	C460.156921,283.393646 456.822662,288.813812 459.023376,294.237213 
	C464.120941,293.522217 468.995972,291.916107 474.126465,291.411407 
	C500.322754,288.834473 519.314819,305.698120 519.335205,331.915283 
	C519.352478,354.157990 509.798767,372.430542 495.263092,388.396423 
	C491.902313,392.087891 491.554382,394.142273 494.986969,398.052887 
	C507.943726,412.814270 516.218323,429.938232 517.846802,449.683380 
	C519.623596,471.228241 512.811462,490.393066 500.067871,507.571594 
	C482.699646,530.984131 459.328247,546.639221 433.114807,558.288818 
	C393.576813,575.859985 351.973083,583.277710 308.788513,583.537048 
	C270.102112,583.769348 232.488052,578.276306 196.129745,565.029358 
	C169.090652,555.177734 144.264343,541.505493 123.833336,520.800049 
	C108.713371,505.477051 98.160393,487.661133 95.196289,466.004456 
	C93.355202,452.552887 95.226021,439.459351 100.194534,426.425842 
M448.894012,347.144257 
	C444.495239,363.946198 438.661072,380.267365 431.526520,396.073395 
	C433.745789,397.050049 434.981140,396.462311 436.222504,396.014282 
	C448.729492,391.500427 460.250793,385.244659 470.081573,376.210876 
	C480.977661,366.198242 489.210144,354.475372 492.302582,339.687286 
	C495.050415,326.546997 491.198822,319.550171 480.451324,317.672485 
	C477.844818,317.217102 475.402679,317.798004 473.066193,318.425415 
	C462.082886,321.374603 451.190765,324.529358 450.792633,339.077332 
	C450.725891,341.516541 449.704803,343.929626 448.894012,347.144257 
z"/>
<path fill="white" opacity="1.000000" stroke="none" 
	d="
M198.388184,298.781342 
	C185.747696,294.176910 174.103699,288.557678 163.974503,280.137848 
	C158.627304,275.693054 154.345093,270.418274 151.883270,263.885590 
	C147.461731,252.152649 151.601074,240.192566 163.200089,230.368561 
	C176.840973,218.815140 192.962799,212.144272 209.820084,207.213608 
	C249.564880,195.588486 290.205200,192.759155 331.371674,195.533615 
	C360.399323,197.489975 388.820587,202.336746 416.036621,212.990250 
	C426.788269,217.198914 436.940460,222.528671 445.746033,230.134445 
	C449.031433,232.972214 452.045654,236.079102 454.405426,239.758896 
	C462.124390,251.795868 460.500244,264.801605 449.580475,276.047882 
	C438.748322,287.203918 425.014526,293.650604 410.695801,298.835114 
	C384.692963,308.250183 357.676453,312.482422 330.165619,314.436401 
	C307.993042,316.011230 285.897583,315.501495 263.859833,313.187866 
	C241.662323,310.857391 219.781281,306.743011 198.388184,298.781342 
M312.484985,257.704742 
	C321.309479,257.845215 330.083374,258.633698 338.856628,259.563812 
	C365.841125,262.424713 392.095062,267.813416 416.076477,281.313416 
	C417.360809,282.036407 418.525665,282.763214 420.236176,281.958160 
	C428.714844,277.967743 436.428680,265.527771 435.626465,256.246338 
	C434.899994,247.841415 429.715363,241.922485 423.510925,236.908630 
	C412.983948,228.401733 400.721191,223.183029 387.926483,219.276688 
	C356.913483,209.808105 325.141846,206.742767 292.799286,207.993820 
	C268.579498,208.930649 244.722504,211.872116 221.566788,219.168259 
	C207.381058,223.638062 193.625885,229.196503 182.664017,239.808853 
	C170.103210,251.969177 170.251205,265.004517 182.984985,277.033936 
	C184.192337,278.174500 185.619827,279.085541 186.802017,280.248596 
	C189.199585,282.607269 191.410706,282.554230 194.328751,280.795502 
	C204.227371,274.829529 214.985687,270.818695 226.089508,267.721558 
	C254.031906,259.927765 282.584869,257.307281 312.484985,257.704742 
z"/>
<path fill="white" opacity="1.000000" stroke="none" 
	d="
M273.652100,512.551880 
	C250.244553,508.747711 228.389435,502.045380 210.050735,487.027435 
	C199.354706,478.268219 192.026123,467.404694 192.684067,452.711700 
	C192.718933,451.933350 192.930695,451.162933 193.068481,450.338654 
	C193.608047,450.535950 194.093338,450.573883 194.155212,450.755798 
	C200.789062,470.261627 216.282455,480.619659 233.816315,488.513123 
	C252.220703,496.798462 271.744598,500.440887 291.861481,501.903900 
	C316.929749,503.727020 341.404510,501.161163 365.296204,493.620178 
	C380.341431,488.871429 394.328156,481.984100 405.846069,470.760925 
	C411.677826,465.078369 415.737091,458.369843 418.315430,450.088837 
	C421.124054,453.073212 420.258331,455.905823 419.904022,458.512177 
	C417.793091,474.040070 407.866302,484.152710 395.620331,492.282837 
	C376.901550,504.710297 355.749451,510.293854 333.762848,513.363220 
	C313.818451,516.147522 293.939911,515.824585 273.652100,512.551880 
z"/>
<path fill="white" opacity="1.000000" stroke="none" 
	d="
M305.379333,177.703827 
	C289.915253,164.958237 285.909943,147.121048 294.231750,128.989487 
	C296.041260,125.046974 298.099152,121.212250 300.795746,117.811615 
	C314.702637,100.273956 315.131927,82.013359 303.929047,63.057278 
	C302.999817,61.484905 302.153046,59.862499 301.313385,58.239822 
	C301.182098,57.986141 301.295013,57.606110 301.295013,57.159801 
	C303.598541,55.759991 305.390900,57.468918 307.167358,58.368713 
	C331.081787,70.481575 339.075531,98.661674 325.443939,122.928688 
	C323.330780,126.690514 320.851410,130.261337 318.363983,133.795609 
	C308.592438,147.679550 308.548615,159.545914 318.469147,173.378174 
	C321.350159,177.395187 324.506531,181.214706 327.604858,185.212753 
	C322.569580,186.835236 315.025360,184.252258 305.379333,177.703827 
z"/>
<path fill="white" opacity="1.000000" stroke="none" 
	d="
M296.036072,107.897614 
	C290.202728,117.236664 285.072052,122.144821 278.725586,124.430740 
	C278.226410,121.957153 279.942780,120.355553 280.925751,118.610588 
	C290.382874,101.822098 291.708099,85.262527 281.224701,68.122574 
	C275.483429,58.735794 271.589722,48.361389 273.647247,36.843594 
	C274.085480,34.390572 274.694092,31.926121 278.039825,31.051416 
	C281.117767,43.792923 290.130371,53.306862 295.847961,64.604759 
	C303.026550,78.789543 304.044739,93.187233 296.036072,107.897614 
z"/>
</svg>